<svg id="visual" viewBox="0 0 900 600" width="900" height="600" xmlns="http://www.w3.org/2000/svg" xmlns:xlink="http://www.w3.org/1999/xlink" version="1.1"><path d="M0 302L30 301.7C60 301.3 120 300.7 180 325.8C240 351 300 402 360 430.8C420 459.7 480 466.3 540 446.7C600 427 660 381 720 359.5C780 338 840 341 870 342.5L900 344L900 601L870 601C840 601 780 601 720 601C660 601 600 601 540 601C480 601 420 601 360 601C300 601 240 601 180 601C120 601 60 601 30 601L0 601Z" fill="#c41b1b"></path><path d="M0 441L30 440.2C60 439.3 120 437.7 180 441.2C240 444.7 300 453.3 360 460.2C420 467 480 472 540 487.8C600 503.7 660 530.3 720 519.8C780 509.3 840 461.7 870 437.8L900 414L900 601L870 601C840 601 780 601 720 601C660 601 600 601 540 601C480 601 420 601 360 601C300 601 240 601 180 601C120 601 60 601 30 601L0 601Z" fill="#d0a918"></path></svg>